<!--version="1.0" encoding="UTF-8"--><svg version="1.1" xmlns="http://www.w3.org/2000/svg" width="512" height="512"><path d="m0 0 2.863.934C18.142 6.142 18.142 6.142 23 11c8.046.067 15.732-1.432 23.47-3.452A203.35 203.35 0 0 1 53 6l2.516-.564C66.37 3.393 77.37 3.663 88.374 3.684c3.486.003 6.972-.02 10.458-.045 11.787-.036 22.73.276 34.168 3.36l3.128.774C155.249 12.637 173.923 19.824 189 33v2h2v2l4 2v2h2l1 4h2l1 4h2c8.466 16.62 8.466 16.62 9.691 22.082 1.076 3.179 1.076 3.179 4.294 4.57l3.766 1.285c1.352.486 2.702.977 4.05 1.473l2.097.766c3.454 1.353 6.741 3.01 10.04 4.7l3.528 1.804L243 87v2h2c2.089 4.177 1.444 9.451 1 14-1.033 2.662-2.004 3.886-4 6h-2l-1 3c-8.646 6.797-19.043 9.85-29.809 11.082l-2.239.259c-7.374.795-14.723.976-22.136 1.067-21.339.281-42.553 1.847-63.814 3.593l-.416 2.374c-.65 2.927-1.546 4.221-3.521 6.439l-1.59 1.832C114 140 114 140 112 140v2l-2.438.812L107 144l-1 3c-8.556 6.827-21.69 14.222-33 13-3.08-1.347-4.647-2.647-7-5-.266-2.242-.266-2.242-.25-4.875l-.016-2.617c.277-2.613.947-4.258 2.266-6.508-2.794.743-5.585 1.494-8.375 2.25l-2.348.621c-5.027 1.372-9.773 3.089-14.59 5.072-5.103 2.009-10.346 3.618-15.562 5.308-24.435 8.047-48.205 17.447-68.848 33.148C-44 189-44 189-47 190l-1 3c-5.465 5-5.465 5-8 5l-.742 1.719c-1.479 2.68-3.266 4.567-5.383 6.78-4.984 5.433-8.94 11.283-12.875 17.5l-1.504 2.258c-2.87 4.37-5.137 8.674-6.496 13.742l-.566 1.965c-.382 2.437-.338 3.72.566 6.035 3.353 3.418 7.163 6.15 11 9 11.516 9.769 19.617 24.13 22 39 1.066 14.356 1.066 14.356-3 21-2.975 1.487-4.673 1.431-8 1-2.016-1.3-3.825-2.785-5.7-4.281-11.5-8.593-25.681-10.902-39.515-13.228C-108 300-108 300-110 298l-1.625.953c-5.281 2.884-10.464 4.742-16.312 6.11-9.433 2.216-17.798 4.23-25.063 10.937h-2l-1 3h-2l-2 4c-6.47-.488-6.47-.488-8.875-2.812-5.052-9.824-1.948-23.149.875-33.188 7.077-18.578 21.417-32.337 39-41l.168-3.241c.206-3.975.418-7.948.632-11.921l.27-5.157c.128-2.473.26-4.945.395-7.417l.117-2.324c.19-3.444.547-6.613 1.418-9.942a119 119 0 0 0 .43-4.492l.216-2.616.23-2.767c.765-8.594 2.03-16.745 4.124-25.125l.754-3.203A181.023 181.023 0 0 1-115 150c1.942-5.624 3.63-11.208 5-17h2l.258-2.5c.905-4.268 2.603-7.659 4.617-11.5l1.066-2.078a969.92 969.92 0 0 1 2.079-4.024c1.353-2.62 2.668-5.257 3.98-7.898h2l.223-2.055c1.015-3.845 3.022-6.81 5.215-10.07l1.236-1.879A832.464 832.464 0 0 1-84 86l2-3h2l1-4h2l2-5h2l.812-2.438L-71 69l3-1a113.143 113.143 0 0 0 2-4c5.09-6.303 10.79-11.82 17-17 1.275-1.048 1.275-1.048 1.09-3.406C-48.287 35.95-49.54 30.547-55 25c-5.849-4.493-12.348-7.862-19-11v-2h-2c-.29-3.38-.414-6.627 0-10 2.062-2.438 2.062-2.438 5-4l2.938-1.625C-46.96-11.86-20.595-7.007 0 0zm86.812 97.285L85 100.062l-2.016 2.977L81 106a286.074 286.074 0 0 1-3.75 4.938l-1.61 2.09C74 115 74 115 71.798 117.127c-2.028 1.68-2.028 1.68-1.797 3.872l-1.766.805c-2.296 1.228-4.038 2.598-5.984 4.32l-1.86 1.633L59 129c2.78 1.39 4.144.632 7.129-.145l3.138-.802 3.295-.865C76.705 126.117 80.85 125.051 85 124l2.257-.576c15.48-3.705 31.748-4.468 47.555-5.924l3.611-.336c15.928-1.476 31.843-2.79 47.822-3.531 8.997-.433 17.838-1.412 26.755-2.633v-1l-17-1 11-1v-1l-3.613-.184-4.7-.254-2.38-.119-2.295-.127-2.11-.11C190 106 190 106 187 105c-7.078-1.869-13.66-3.432-21-3v-2c-2.499-.61-5-1.212-7.5-1.812l-2.05-.502A403.217 403.217 0 0 0 149 96l-3.494-.795c-9.785-2.058-19.15-2.645-29.137-2.541-2.462.024-4.922.02-7.384.014-1.59.005-3.18.012-4.771.021l-2.191-.004c-5.67.079-11.15.346-15.212 4.59zM-29 136l-5 3.812c-3.248 2.528-6.125 5.237-9 8.188-1.14.966-2.286 1.924-3.438 2.875C-50 153.892-53.305 157.17-56 161v2l-3 1v2h-2c-7.975 9.306-14.78 19.934-20 31h4l1.125-3.812c1.29-3.523 1.698-4.077 5.062-6.188l2.813-1c-1.75 3.875-1.75 3.875-4 5-2.41 4.244-2.41 4.244-3 9h2v-2h2c1.43-1.453 1.43-1.453 2.938-3.375 15.287-17.866 35.634-29.821 57.09-38.796a515.86 515.86 0 0 0 5.816-2.494c6.001-2.603 12-5.12 18.156-7.336l-.984-1.719c-1.1-2.467-1.284-4.096-1.266-6.78l-.016-2.281c.619-5.166 3.715-7.67 7.266-11.22a87.755 87.755 0 0 0 3-5l2-3c.441-1.882.81-3.78 1.125-5.688l.508-3.011L25 105c-18.333 0-40.414 20.297-54 31zm-53 62-1 4h2l-1-4zm4 3 1 3zm-7 4-1 3h2l-1-3zm4 1 1 2zm-31.375 44.125c-4.795 3.44-9.737 6.08-15.059 8.613-2.709 1.263-2.709 1.263-5.566 3.262v2l-1.688.75c-2.736 1.48-4.989 3.185-7.312 5.25v2h-2c-3.858 4.13-6.62 8.484-8 14l3 1v4l-3 1-1-3c-1.478 2.957-1.06 5.742-1 9 3.63 1.21 4.314.687 7.75-.75 4.617-1.79 9.065-2.874 13.938-3.75 6.993-1.322 12.578-2.618 17.624-7.938 1.636-2.484 3.212-4.98 4.688-7.562 2.125 0 2.125 0 5 1 1.387 1.707 1.387 1.707 2.812 3.812 5.69 8 14.214 9.098 23.317 11.239 3.153.774 6.179 1.642 9.245 2.7 3.3 1.359 3.3 1.359 5.625 1.25-.601-5.65-2.075-10.662-4-16h-2l-.125-2c-1.262-4.327-3.805-7.718-6.875-11h-2v-2a82 82 0 0 0-4.625-3.812l-2.762-2.172a237.37 237.37 0 0 0-4.508-3.407c-4.067-3.09-5.447-5.914-7.105-10.61h-2l-1 5-5 1v-6c-2.88 0-4.08 1.41-6.375 3.125z" fill="#151C53" transform="translate(225,103)"/><path d="m0 0 2.863.934C18.142 6.142 18.142 6.142 23 11c8.046.067 15.732-1.432 23.47-3.452A203.35 203.35 0 0 1 53 6l2.516-.564C66.37 3.393 77.37 3.663 88.374 3.684c3.486.003 6.972-.02 10.458-.045 11.787-.036 22.73.276 34.168 3.36l3.128.774C155.249 12.637 173.923 19.824 189 33v2h2v2l4 2v2h2l1 4h2l1 4h2c8.466 16.62 8.466 16.62 9.691 22.082 1.076 3.179 1.076 3.179 4.294 4.57l3.766 1.285c1.352.486 2.702.977 4.05 1.473l2.097.766c3.454 1.353 6.741 3.01 10.04 4.7l3.528 1.804L243 87v2h2c2.089 4.177 1.444 9.451 1 14-1.033 2.662-2.004 3.886-4 6h-2l-1 3c-8.646 6.797-19.043 9.85-29.809 11.082l-2.239.259c-7.374.795-14.723.976-22.136 1.067-21.339.281-42.553 1.847-63.814 3.593l-.416 2.374c-.65 2.927-1.546 4.221-3.521 6.439l-1.59 1.832C114 140 114 140 112 140v2l-2.438.812L107 144l-1 3c-8.556 6.827-21.69 14.222-33 13-3.08-1.347-4.647-2.647-7-5-.266-2.242-.266-2.242-.25-4.875l-.016-2.617c.277-2.613.947-4.258 2.266-6.508-2.794.743-5.585 1.494-8.375 2.25l-2.348.621c-5.027 1.372-9.773 3.089-14.59 5.072-5.103 2.009-10.346 3.618-15.562 5.308-24.435 8.047-48.205 17.447-68.848 33.148C-44 189-44 189-47 190l-1 3c-5.465 5-5.465 5-8 5l-.742 1.719c-1.479 2.68-3.266 4.567-5.383 6.78-4.984 5.433-8.94 11.283-12.875 17.5l-1.504 2.258c-2.87 4.37-5.137 8.674-6.496 13.742l-.566 1.965c-.382 2.437-.338 3.72.566 6.035 3.353 3.418 7.163 6.15 11 9 11.516 9.769 19.617 24.13 22 39 1.066 14.356 1.066 14.356-3 21-2.975 1.487-4.673 1.431-8 1-2.016-1.3-3.825-2.785-5.7-4.281-11.5-8.593-25.681-10.902-39.515-13.228C-108 300-108 300-110 298l-1.625.953c-5.281 2.884-10.464 4.742-16.312 6.11-9.433 2.216-17.798 4.23-25.063 10.937h-2l-1 3h-2l-2 4c-6.47-.488-6.47-.488-8.875-2.812-5.052-9.824-1.948-23.149.875-33.188 7.077-18.578 21.417-32.337 39-41l.168-3.241c.206-3.975.418-7.948.632-11.921l.27-5.157c.128-2.473.26-4.945.395-7.417l.117-2.324c.19-3.444.547-6.613 1.418-9.942a119 119 0 0 0 .43-4.492l.216-2.616.23-2.767c.765-8.594 2.03-16.745 4.124-25.125l.754-3.203A181.023 181.023 0 0 1-115 150c1.942-5.624 3.63-11.208 5-17h2l.258-2.5c.905-4.268 2.603-7.659 4.617-11.5l1.066-2.078a969.92 969.92 0 0 1 2.079-4.024c1.353-2.62 2.668-5.257 3.98-7.898h2l.223-2.055c1.015-3.845 3.022-6.81 5.215-10.07l1.236-1.879A832.464 832.464 0 0 1-84 86l2-3h2l1-4h2l2-5h2l.812-2.438L-71 69l3-1a113.143 113.143 0 0 0 2-4c5.09-6.303 10.79-11.82 17-17 1.275-1.048 1.275-1.048 1.09-3.406C-48.287 35.95-49.54 30.547-55 25c-5.849-4.493-12.348-7.862-19-11v-2h-2c-.29-3.38-.414-6.627 0-10 2.062-2.438 2.062-2.438 5-4l2.938-1.625C-46.96-11.86-20.595-7.007 0 0zm-72 2c-2.179 3.268-2.722 4.21-2 8 3.407 3.591 7.147 5.678 11.5 8 8.998 4.846 14.23 10.119 17.5 20 .75 3.986 1.084 7.405-1.271 10.87-1.801 1.828-3.678 3.448-5.667 5.068-1.396 1.22-2.79 2.442-4.18 3.667-.675.585-1.35 1.17-2.046 1.771C-72.883 72.386-84.36 90.05-94 107l-1.214 2.104C-119.2 150.987-125.679 199.492-125 247l-2.574.715c-3.848 1.443-6.948 3.443-10.239 5.848l-1.855 1.35c-9.126 6.772-15.679 14.212-21.332 24.087l-1.215 2.02c-5.707 10.23-6.86 22.48-5.785 33.98.905 2.345.905 2.345 2 4 4.39.379 4.39.379 8.203-1.574l2.047-2.113c7.639-7.171 15.467-9.67 25.483-11.865 7.893-1.743 15.223-3.807 21.267-9.448a60.746 60.746 0 0 1 8.375 3.875c3.84 1.964 7.698 3.008 11.875 4.062 10.182 2.583 18.891 5.6 26.715 12.805 2.01 1.516 2.01 1.516 4.664 1.078 2.52-.678 2.52-.678 4.37-2.82a82.82 82.82 0 0 0 .312-7.875c-.005-.767-.01-1.534-.017-2.325-.363-17.206-7.894-31.546-20.041-43.503-4.541-4.215-9.05-7.955-14.254-11.297 2.046-22.996 22.002-44.405 38.856-58.559 34.7-27.84 79.71-39.443 121.144-53.44l-1.094 2.195-1.406 2.93-1.406 2.883C67.907 147.254 67.697 149.57 68 153c1.309 2.56 1.309 2.56 4 4 10.566 1.732 21.468-3.914 29.938-9.875 8.116-6.22 8.116-6.22 14.22-14.271 3.53-6.296 3.53-6.296 6.955-7.753 2.593-.407 5.078-.535 7.703-.577l3.005-.154c3.394-.165 6.785-.266 10.18-.37 2.57-.112 5.14-.227 7.71-.347a2501.3 2501.3 0 0 1 18.772-.783c3.601-.14 7.202-.272 10.803-.396 30.221-.174 30.221-.174 56.652-13.036 3.614-4.271 5.791-7.039 6.438-12.75-.46-4.526-2.01-6.797-5.375-9.688-3.358-1.9-6.855-3.329-10.438-4.75l-2.814-1.168c-3.743-1.54-7.227-2.97-11.193-3.82-3.499-1.728-3.97-3.693-5.215-7.28l-.777-2.42c-7.465-20.97-22.63-36.74-42.569-46.549C158.504 17.506 150.9 14.46 143 12l-2.246-.977c-3.474-1.29-6.993-1.943-10.63-2.585l-2.065-.381A344.662 344.662 0 0 0 121.999 7l-3.125-.53c-4.648-.564-9.205-.651-13.883-.673l-2.913-.017c-2.037-.01-4.072-.016-6.108-.02-3.04-.01-6.077-.04-9.117-.073C69.705 5.595 53.091 7.25 36.5 11.75c-11.283 3.044-11.283 3.044-16.98-.133l-2.708-1.742C-4.531-2.817-50.706-16.928-72 2z" fill="#F2F2F4" transform="translate(225,103)"/><path d="M0 0c2.82 2.82 2.29 4.93 2.322 8.783l-.01 2.655.05 2.642.001 2.541.01 2.327C1.902 21.533 1.013 22.365-1 24a89.33 89.33 0 0 1-4.75 2.688l-2.945 1.574c-1.713.9-3.425 1.8-5.14 2.697C-21.487 34.961-28.96 38.962-36 44c3.51 4.085 7.649 6.12 12.375 8.5C-18.53 55.092-13.75 57.8-9 61c2.615 1.35 5.262 2.601 7.926 3.852C1 66 1 66 2 68c.083 1.448.107 2.9.098 4.352l-.01 2.578-.026 2.695-.013 2.719c-.013 2.219-.03 4.437-.05 6.656-6.706 1.42-9.909.684-15.625-2.938l-4.23-2.53-2.115-1.298c-2.951-1.794-5.958-3.477-8.968-5.172a1576.28 1576.28 0 0 1-20.12-11.738 442.104 442.104 0 0 0-7.102-4.117l-2.653-1.52-2.207-1.238c-3.807-2.787-5.764-5.15-6.546-9.86 0-1.205.002-2.41.004-3.653l-.067-3.66c.63-3.277.63-3.277 2.689-5.472 3.433-2.107 6.926-3.896 10.565-5.618a147.456 147.456 0 0 0 17.012-9.675c2.605-1.667 5.256-3.014 8.047-4.336 3.95-2.006 7.754-4.282 11.57-6.535C-13.216 5-13.216 5-11 5V3C-7.316.183-4.6-.51 0 0z" fill="#181F56" transform="translate(253,322)"/><path d="M0 0c3.87.06 6.324 1.543 9.598 3.527l3.212 1.928L16.187 7.5c2.241 1.326 4.484 2.65 6.727 3.973l5.165 3.061c1.738 1.032 3.477 2.062 5.217 3.093 5.911 3.504 11.815 7.02 17.69 10.583 3.041 1.783 6.154 3.411 9.29 5.017 2.334 1.556 3.523 2.824 4.91 5.273.47 3.059.47 3.059.5 6.438l.094 3.37c-.783 4.215-2.283 5.528-5.592 8.192-2.926 1.746-2.926 1.746-6.313 3.438-6.991 3.585-13.784 7.465-20.562 11.437l-3.119 1.816c-4.732 2.766-9.437 5.559-14.08 8.47l-2.32 1.432c-1.399.868-2.789 1.75-4.167 2.652-3.415 2.103-5.284 2.763-9.342 2.572-3.098-.816-3.098-.816-4.097-1.816-.36-3.093-.372-6.201-.438-9.312l-.139-2.631c-.043-2.486.005-4.637.577-7.057 2.747-2.465 2.747-2.465 6-4l2.282-1.203c.73-.346 1.463-.691 2.218-1.047 9.655-4.74 19.158-9.91 27.5-16.75-2.807-3.275-5.728-4.906-9.566-6.778-4.839-2.43-9.532-5.126-14.247-7.785L7.236 28.19 4.23 26.495 1.512 24.97c-2.164-1.368-3.78-2.434-5.325-4.47-.356-2.069-.356-2.069-.328-4.414l.015-2.555.062-2.655.016-2.68C-3.955.703-3.955.703 0 0z" fill="#181F56" transform="translate(337.8125,321.5)"/><path d="m0 0 2.326.004c3.86.06 5.839.19 9.111 2.37l-1 9h-2l-.25 3.376c-.544 4.447-2.039 8.218-3.777 12.324-1.15 2.723-2.055 5.491-2.972 8.3A1546.976 1546.976 0 0 1-1.66 43.79a60.566 60.566 0 0 0-1.903 6.585h-2l-.187 2.75c-.657 4.577-2.517 8.515-4.352 12.73-1.669 4.021-3.106 8.093-4.523 12.207-1.826 5.289-3.777 10.415-6.145 15.489-.93 2.032-.93 2.032-1.73 5.137-4.153 14.415-4.153 14.415-9.062 17.688a107.64 107.64 0 0 1-8.5.25l-2.34.023c-3.897-.013-5.85-.066-9.16-2.273-.504-4.385.317-7.407 2.125-11.375a273.264 273.264 0 0 0 6-14.875l.73-1.966c.473-1.273.944-2.546 1.415-3.818 1.234-3.326 2.482-6.646 3.73-9.967h2l-.125-2.812c.125-3.188.125-3.188 2.125-6.188.67-2.006 1.288-4.03 1.875-6.062 1.734-5.804 3.81-11.347 6.125-16.938 1.95-4.942 3.61-9.871 5-15h2l.375-3.812c.323-3.291.69-4.287 2.625-7.188.757-2.492 1.39-5 2.023-7.527C-10.81-.062-6.667-.214 0 0z" fill="#171E56" transform="translate(314.5625,307.625)"/><path d="M0 0c-.606 12.11-5.503 21.087-13.207 30.21-2.1 3.266-2.41 4.98-1.793 8.79 3.188 2.125 5.265 2.502 9 3-2.936 1.957-5.533 3.069-8.82 4.32-1.167.45-2.334.898-3.537 1.36l-1.865.714c-42.819 16.442-80.1 40.194-99.465 83.524-1.7 3.989-2.534 7.142-2.688 11.457l-.148 2.836c1.017 5.423 6.006 8.243 10.128 11.53 11.167 8.98 20.828 20.268 22.915 34.905.253 3.124.424 6.221.48 9.355-2.002-.979-3.958-1.975-5.875-3.113-5.86-3.307-11.685-4.846-18.188-6.324-8.544-1.98-15.54-4.034-21-11.313C-135 179-135 179-135 177h-2l-.688 2.125c-2.975 6.518-6.375 9.22-12.764 11.945-4.213 1.538-8.535 2.359-12.923 3.242-8.52 1.855-14.722 4.229-21.625 9.688l-3 2c-.936-13.735 5.125-26.304 13.809-36.57 7.476-8.29 15.08-13.37 24.97-18.45 15.33-7.96 20.907-20.407 27.224-35.802C-112.413 91.886-99.382 72.24-82 54l1.732-1.82c8.002-8.34 16.22-15.985 25.509-22.87a365.845 365.845 0 0 0 5.303-4.044C-16.422 0-16.422 0 0 0zm-57 34-5 3.812c-3.248 2.528-6.125 5.237-9 8.188a342.09 342.09 0 0 1-3.438 2.875C-78 51.892-81.304 55.17-84 59v2l-3 1v2h-2c-7.975 9.306-14.78 19.934-20 31h4l1.125-3.812c1.29-3.523 1.698-4.077 5.062-6.188L-96 84c-1.75 3.875-1.75 3.875-4 5-2.41 4.244-2.41 4.244-3 9h2v-2h2c1.43-1.453 1.43-1.453 2.938-3.375 15.287-17.866 35.634-29.821 57.09-38.796a515.858 515.858 0 0 0 5.816-2.494c6.001-2.603 12-5.12 18.156-7.336l-.984-1.719c-1.1-2.467-1.284-4.096-1.266-6.78l-.016-2.281c.619-5.166 3.715-7.67 7.266-11.22a87.756 87.756 0 0 0 3-5l2-3c.441-1.882.81-3.78 1.125-5.688l.508-3.011L-3 3c-18.333 0-40.414 20.297-54 31zm-53 62-1 4h2l-1-4zm4 3 1 3zm-7 4-1 3h2l-1-3zm4 1 1 2zm-31.375 44.125c-4.795 3.44-9.737 6.08-15.059 8.613-2.709 1.263-2.709 1.263-5.566 3.262v2l-1.688.75c-2.736 1.48-4.989 3.185-7.312 5.25v2h-2c-3.858 4.13-6.62 8.484-8 14l3 1v4l-3 1-1-3c-1.478 2.957-1.06 5.742-1 9 3.63 1.21 4.314.687 7.75-.75 4.617-1.79 9.065-2.874 13.938-3.75 6.993-1.322 12.578-2.618 17.624-7.938 1.636-2.484 3.212-4.98 4.688-7.562 2.125 0 2.125 0 5 1 1.387 1.707 1.387 1.707 2.812 3.812 5.69 8 14.214 9.098 23.317 11.239 3.153.774 6.179 1.641 9.245 2.7 3.3 1.359 3.3 1.359 5.625 1.25-.601-5.65-2.075-10.662-4-16h-2l-.125-2c-1.262-4.327-3.805-7.718-6.875-11h-2v-2a82 82 0 0 0-4.625-3.812l-2.762-2.172a237.435 237.435 0 0 0-4.508-3.407c-4.067-3.09-5.447-5.914-7.105-10.61h-2l-1 5-5 1v-6c-2.88 0-4.08 1.41-6.375 3.125z" fill="#F7F7F8" transform="translate(253,205)"/><path d="m0 0 2.863.934C18.142 6.142 18.142 6.142 23 11c8.046.067 15.732-1.432 23.47-3.452A203.35 203.35 0 0 1 53 6l2.516-.564C66.37 3.393 77.37 3.663 88.374 3.684c3.486.003 6.972-.02 10.458-.045 11.787-.036 22.73.276 34.168 3.36l3.128.774C155.249 12.637 173.923 19.824 189 33v2h2v2l4 2v2h2l1 4h2l1 4h2c8.466 16.62 8.466 16.62 9.691 22.082 1.076 3.179 1.076 3.179 4.294 4.57l3.766 1.285c1.352.486 2.702.977 4.05 1.473l2.097.766c3.454 1.353 6.741 3.01 10.04 4.7l3.528 1.804L243 87v2h2c2.089 4.177 1.444 9.451 1 14-1.033 2.662-2.004 3.886-4 6h-2l-1 3c-8.646 6.797-19.043 9.85-29.809 11.082l-2.239.259c-7.374.795-14.723.976-22.136 1.067-21.339.281-42.553 1.847-63.814 3.593l-.416 2.374c-.65 2.927-1.546 4.221-3.521 6.439l-1.59 1.832C114 140 114 140 112 140v2l-2.438.812L107 144l-1 3c-8.556 6.827-21.69 14.222-33 13-3.08-1.347-4.647-2.647-7-5-.266-2.242-.266-2.242-.25-4.875l-.016-2.617c.277-2.613.947-4.258 2.266-6.508-2.794.743-5.585 1.494-8.375 2.25l-2.348.621c-5.065 1.383-9.866 3.103-14.72 5.1-4.359 1.756-8.795 3.272-13.244 4.78l-2.721.957C21.51 156.427 17.366 157.382 12 157c2.644-1.763 4.569-2.652 7.528-3.648l2.773-.941 2.993-1 3.09-1.046c3.267-1.105 6.536-2.203 9.805-3.301l9.75-3.291c2.021-.683 4.044-1.365 6.067-2.044 4.197-1.414 8.365-2.854 12.492-4.46C70 136 70 136 73 136c-.449 3.05-1.101 5.19-2.562 7.938-1.588 3.382-1.93 5.375-1.438 9.062 2.248 2.862 2.93 2.99 6.75 3.562 14.143-.53 27.076-10.067 36.703-19.628 1.673-1.928 1.673-1.928 2.719-4.524 1.624-3.328 2.928-5.06 5.828-7.41 3.208-.872 6.412-1.027 9.723-1.207l3.025-.213c15.82-1.05 31.692-1.56 47.537-2.106 30.117-.275 30.117-.275 56.652-12.911 3.181-3.953 4.877-7.052 5.5-12.126-.545-4.288-1.353-5.404-4.437-8.437-3.327-1.82-6.793-3.22-10.312-4.625l-2.803-1.156-2.748-1.134-2.669-1.108c-2.386-.984-2.386-.984-4.573-1.62-2.623-.854-4.497-1.716-5.974-4.099-.94-2.226-1.696-4.455-2.42-6.76C199.2 43.94 181.967 29.595 160 19l-3.09-1.5c-5.929-2.66-12.026-4.493-18.285-6.188l-2.25-.614c-13.615-3.502-26.952-4.044-40.93-4.014a933.52 933.52 0 0 1-8.931-.045C69.5 6.58 52.955 8.285 36.5 12.749c-11.283 3.044-11.283 3.044-16.98-.133l-2.708-1.742C-6.044-2.715-33.947-7.748-60.124-2.75-64.81-1.517-68.59-.508-72 3c-1.408 3.438-1.408 3.438-1 7 2.786 3.284 6.62 4.874 10.375 6.875C-52.94 22.127-47.892 27.427-44 38c.784 3.258 1.092 5.8 0 9-2.059 2.455-4.321 4.258-7 6l-2-1 1.602-1.18c4.058-3.349 4.058-3.349 5.664-8.16-1.26-7.967-5.563-14.778-11.89-19.703C-62.862 19.547-68.353 16.664-74 14v-2h-2c-.29-3.38-.414-6.627 0-10 2.062-2.438 2.062-2.438 5-4l2.938-1.625C-46.96-11.86-20.595-7.007 0 0z" fill="#EDEEF0" transform="translate(225,103)"/><path d="M0 0 2.56-.046C23.726-.355 42.829.988 63.378 6.31c1.608.395 3.217.79 4.827 1.182a587.7 587.7 0 0 1 7.645 1.942c14.141 3.508 28.18 4.868 42.714 5.437l3.174.132c2.546.105 5.093.207 7.639.307-14.053 10.719-34.313 9.32-51.226 10.26-44.602 2.404-44.602 2.404-88.775 8.739-.818.154-1.634.31-2.476.47-13.202 2.59-27.167 5.625-39.42 11.275-3.105 1.254-3.105 1.254-6.105.254.81-.474 1.62-.948 2.456-1.435 7.736-4.62 14.764-9.586 21.543-15.566.633-.552 1.267-1.102 1.92-1.67 6.938-6.443 12.15-14.914 16.829-23.081 2.249-3.251 2.249-3.251 4.35-3.935C-7.68.205-3.857.067 0 0zM-13.81 6.594-15.62 9.37l-2.017 2.978-1.984 2.96a286.027 286.027 0 0 1-3.751 4.938l-1.61 2.09c-1.641 1.973-1.641 1.973-3.844 4.101-2.028 1.68-2.028 1.68-1.797 3.872-.584.264-1.166.53-1.767.803-2.296 1.229-4.038 2.599-5.984 4.32l-1.86 1.633-1.391 1.243c2.778 1.388 4.142.63 7.128-.146l3.138-.803c1.088-.284 2.175-.57 3.295-.864 4.145-1.07 8.29-2.135 12.439-3.187l2.256-.577c15.48-3.706 31.748-4.468 47.555-5.924l3.612-.337c15.928-1.476 31.843-2.79 47.822-3.532 8.997-.431 17.838-1.41 26.755-2.631l-.001-1.001-17.001-1.001 10.999-1.001-.001-1.001-3.614-.185-4.7-.254-2.38-.118-2.295-.127-2.11-.111c-1.901-.205-1.901-.205-4.901-1.205-7.08-1.87-13.661-3.433-21.001-3.001l-.001-2.001c-2.5-.61-5-1.214-7.501-1.814l-2.052-.502a403.217 403.217 0 0 0-7.45-1.685c-1.152-.264-2.305-.526-3.493-.797-9.785-2.057-19.15-2.645-29.137-2.54-2.461.023-4.921.02-7.383.013-1.59.006-3.18.013-4.771.022l-2.191-.003c-5.67.079-11.15.345-15.212 4.589z" fill="#F6F6F6" transform="translate(325.62109375,193.69140625)"/><path d="M0 0c4.734 2.14 7.638 4.433 9.77 9.316.81 6.257.647 11.66-3 17C3.44 30.448.048 31.884-5.184 32.574c-5.15.295-8.046-.803-12.046-4.258-4.123-5.46-5.91-10.124-5-17C-18.532 1.346-10.038-3.076 0 0z" fill="#E9EAED" transform="translate(371.23046875,152.68359375)"/><path d="m0 0 2.326.004c3.86.06 5.839.19 9.111 2.37l-1 9h-2l-.25 3.376c-.544 4.447-2.039 8.218-3.777 12.324-1.15 2.723-2.055 5.491-2.972 8.3A1546.976 1546.976 0 0 1-1.66 43.79a60.566 60.566 0 0 0-1.903 6.585h-2l-.187 2.75c-.657 4.577-2.517 8.515-4.352 12.73-1.669 4.021-3.106 8.093-4.523 12.207-1.826 5.289-3.777 10.415-6.145 15.489-.93 2.032-.93 2.032-1.73 5.137-4.153 14.415-4.153 14.415-9.062 17.688a107.64 107.64 0 0 1-8.5.25l-2.34.023c-3.897-.013-5.85-.066-9.16-2.273-.504-4.385.317-7.407 2.125-11.375a273.264 273.264 0 0 0 6-14.875l.73-1.966c.473-1.273.944-2.546 1.415-3.818 1.234-3.326 2.482-6.646 3.73-9.967h2l-.125-2.812c.125-3.188.125-3.188 2.125-6.188.67-2.006 1.288-4.03 1.875-6.062 1.734-5.804 3.81-11.347 6.125-16.938 1.95-4.942 3.61-9.871 5-15h2l.375-3.812c.323-3.291.69-4.287 2.625-7.188.757-2.492 1.39-5 2.023-7.527C-10.81-.062-6.667-.214 0 0zm-7.562 2.375c-3.417 6.53-6.31 13.072-8.793 20.008l-1.043 2.86c-1.123 3.084-2.238 6.17-3.352 9.257-1.59 4.384-3.185 8.767-4.781 13.148-.41 1.122-.818 2.244-1.238 3.4a1683.122 1683.122 0 0 1-9.013 24.054l-2.524 6.62a1864.194 1864.194 0 0 1-3.668 9.557c-1.14 2.938-2.263 5.883-3.383 8.83l-1.036 2.632c-2.19 5.7-2.19 5.7-1.173 11.633 2.44.108 4.873.187 7.313.25l2.092.102c2.285.087 2.285.087 5.596-.352 2.33-2.533 3.593-5.105 4.754-8.317l.947-2.585 1-2.801 1.076-2.952c.765-2.101 1.526-4.203 2.285-6.307 2.007-5.559 4.035-11.11 6.059-16.663.408-1.124.816-2.248 1.238-3.406 3.919-10.764 7.92-21.496 11.952-32.22.61-1.622 1.218-3.244 1.827-4.867l1.724-4.585.817-2.177c1.25-3.324 2.52-6.637 3.845-9.93l1.393-3.487 1.224-2.995c.873-2.757 1.108-4.837.858-7.708-1.163-1.392-1.163-1.392-4.38-1.098-1.394.007-2.789.02-4.183.036l-2.154.013c-1.76.012-3.521.03-5.283.05z" fill="#F5F5F7" transform="translate(314.5625,307.625)"/><path d="M0 0c2.82 2.82 2.29 4.93 2.322 8.783l-.01 2.655.05 2.642.001 2.541.01 2.327C1.902 21.533 1.013 22.365-1 24a89.33 89.33 0 0 1-4.75 2.688l-2.945 1.574c-1.713.9-3.425 1.8-5.14 2.697C-21.487 34.961-28.96 38.962-36 44c3.51 4.085 7.649 6.12 12.375 8.5C-18.53 55.092-13.75 57.8-9 61c2.615 1.35 5.262 2.601 7.926 3.852C1 66 1 66 2 68c.083 1.448.107 2.9.098 4.352l-.01 2.578-.026 2.695-.013 2.719c-.013 2.219-.03 4.437-.05 6.656-6.706 1.42-9.909.684-15.625-2.938l-4.23-2.53-2.115-1.298c-2.951-1.794-5.958-3.477-8.968-5.172a1576.28 1576.28 0 0 1-20.12-11.738 442.104 442.104 0 0 0-7.102-4.117l-2.653-1.52-2.207-1.238c-3.807-2.787-5.764-5.15-6.546-9.86 0-1.205.002-2.41.004-3.653l-.067-3.66c.63-3.277.63-3.277 2.689-5.472 3.433-2.107 6.926-3.896 10.565-5.618a147.456 147.456 0 0 0 17.012-9.675c2.605-1.667 5.256-3.014 8.047-4.336 3.95-2.006 7.754-4.282 11.57-6.535C-13.216 5-13.216 5-11 5V3C-7.316.183-4.6-.51 0 0zm-10.86 5.57-2.845 1.698-3.045 1.857a3787.73 3787.73 0 0 1-6.457 3.852l-3.374 2.012c-6.579 3.867-13.27 7.537-19.956 11.214A561.808 561.808 0 0 0-55 31l-2.677 1.494c-4.948 2.926-4.948 2.926-7.553 7.908l.043 3.535-.106 3.528C-63.255 53.036-58.96 55.057-54 58l2.59 1.543a423.094 423.094 0 0 0 8.035 4.52c6.377 3.546 12.726 7.122 18.996 10.855l3.266 1.94a991.7 991.7 0 0 1 6.22 3.736l2.867 1.703 2.508 1.51C-6.656 85.163-4.143 85.694-1 86 1.064 83.936.5 80.12.625 77.312l.215-2.146C.922 72.834.805 71.198 0 69c-2.652-2.626-5.723-4.255-9-6l-2.642-1.49A465.86 465.86 0 0 0-19.937 57c-7.14-3.82-14.157-7.77-21.063-12 4.27-3.672 8.877-6.356 13.75-9.125l2.503-1.468c4.19-2.447 8.373-4.742 12.774-6.786 7.739-3.314 7.739-3.314 12.71-9.6C1.518 13.223 1.013 8.726 0 4-1.033 2.756-1.033 2.756-3.26 2.777c-3.205.26-4.858 1.13-7.6 2.793z" fill="#EFEFF1" transform="translate(253,322)"/><path d="M0 0c3.87.06 6.324 1.543 9.598 3.527l3.212 1.928L16.187 7.5c2.241 1.326 4.484 2.65 6.727 3.973l5.165 3.061c1.738 1.032 3.477 2.062 5.217 3.093 5.911 3.504 11.815 7.02 17.69 10.583 3.041 1.783 6.154 3.411 9.29 5.017 2.334 1.556 3.523 2.824 4.91 5.273.47 3.059.47 3.059.5 6.438l.094 3.37c-.783 4.215-2.283 5.528-5.592 8.192-2.926 1.746-2.926 1.746-6.313 3.438-6.991 3.585-13.784 7.465-20.562 11.437l-3.119 1.816c-4.732 2.766-9.437 5.559-14.08 8.47l-2.32 1.432c-1.399.868-2.789 1.75-4.167 2.652-3.415 2.103-5.284 2.763-9.342 2.572-3.098-.816-3.098-.816-4.097-1.816-.36-3.093-.372-6.201-.438-9.312l-.139-2.631c-.043-2.486.005-4.637.577-7.057 2.747-2.465 2.747-2.465 6-4l2.282-1.203c.73-.346 1.463-.691 2.218-1.047 9.655-4.74 19.158-9.91 27.5-16.75-2.807-3.275-5.728-4.906-9.566-6.778-4.839-2.43-9.532-5.126-14.247-7.785L7.236 28.19 4.23 26.495 1.512 24.97c-2.164-1.368-3.78-2.434-5.325-4.47-.356-2.069-.356-2.069-.328-4.414l.015-2.555.062-2.655.016-2.68C-3.955.703-3.955.703 0 0zm-.812 2.5c-2.064 2.064-1.501 5.88-1.625 8.688l-.215 2.146c-.082 2.328.042 3.971.84 6.166 2.632 2.639 5.734 4.245 9 6 .98.565 1.96 1.13 2.97 1.71 3.201 1.838 6.424 3.63 9.655 5.415 2.18 1.21 4.36 2.422 6.539 3.633l3.06 1.696a776.142 776.142 0 0 1 9.775 5.546v2l-1.841 1.035C26.963 52.373 16.583 58.215 6.312 64.25l-2.157 1.265C.99 67.263.99 67.263-1.813 69.5a85817220 85817220 0 0 0 0 16c3.039.932 4.552 1.18 7.542-.025.897-.539 1.794-1.077 2.72-1.631l3.104-1.83c1.644-.996 1.644-.996 3.32-2.014 1.148-.682 2.295-1.362 3.443-2.04 2.402-1.42 4.8-2.848 7.194-4.279a746.52 746.52 0 0 1 10.963-6.38l1.78-1.02 5.185-2.967c9.911-5.133 9.911-5.133 18.75-11.813 1.286-8.355 1.286-8.355-1.446-15.945-2.43-1.617-4.909-2.823-7.555-4.055a505.06 505.06 0 0 1-4.986-2.799 406.113 406.113 0 0 0-3.86-2.17C35.99 21.89 27.8 16.97 19.592 12.083a3094.044 3094.044 0 0 0-6.57-3.899 373.228 373.228 0 0 1-5.057-3.054c-3.327-2.013-4.75-2.63-8.778-2.63z" fill="#F1F1F3" transform="translate(337.8125,321.5)"/><path d="M0 0h1l.17 1.96c.662 4.93 1.353 8.223 5.244 11.509a161.66 161.66 0 0 0 4.21 3.03A525.83 525.83 0 0 1 15 19.84l2.11 1.624C26.587 29.164 33.61 41.853 35 54c.123 2.363.1 4.632 0 7-2.002-.979-3.958-1.975-5.875-3.113-5.86-3.307-11.685-4.846-18.188-6.325-8.544-1.978-15.54-4.033-21-11.312C-11 38-11 38-11 36h-2l-.688 2.125c-2.975 6.517-6.375 9.22-12.764 11.945-4.213 1.538-8.535 2.359-12.923 3.243C-47.895 55.167-54.097 57.54-61 63l-3 2c-.937-13.735 5.125-26.304 13.809-36.57C-39.973 17.1-27.534 10.728-14.001 4v3l-3.324 1.863-4.364 2.45-2.185 1.224c-3.04 1.708-6.056 3.42-9.022 5.256C-35 19-35 19-37 19v2c-1.715 1.438-1.715 1.438-3.938 3-3.048 2.048-3.048 2.048-5.062 5h-2l-.836 1.742c-1.52 2.95-3.327 5.676-5.14 8.453-1.188 1.75-1.188 1.75-1.024 3.805 1.458 1.625 1.458 1.625 3 3l-1 3-4-1-1 7a177.44 177.44 0 0 0 16.316-4.215c2.958-.865 5.935-1.577 8.934-2.285 6.885-1.743 10.934-2.95 14.812-9.125l1.348-2.414C-15 35-15 35-12.316 34.228L-10 34l1.398 2.047c6.655 9.1 13.019 11.44 23.797 13.316C20.958 50.672 26.48 52.916 32 55l-.875-2.738L30 48.687l-1.125-3.55C28 42 28 42 28 39h-2l-.688-2.125c-1.154-2.53-2.153-4.006-3.937-6.062C19 28 19 28 19 26h-2v-2l-1.648-.719c-2.965-1.614-5.38-3.625-7.977-5.78L4.46 15.094C2 13 2 13 0 11c-.195-2.602-.195-2.602-.125-5.625l.055-3.04L0 0z" fill="#EDEEEF" transform="translate(129,346)"/><path d="M0 0c-.558 11.164-4.755 20.535-12 29l-2-2 2.312-3.125C-7.042 17.306-4.943 10.745-3 3l-3 2a98.666 98.666 0 0 1-4.188 1.062c-18.72 5.411-36.565 19.865-51 32.563C-64 41-64 41-66 41l-1 3c-1.742 1.79-1.742 1.79-3.875 3.625-.699.61-1.397 1.222-2.117 1.852C-75 51-75 51-78 52a88.352 88.352 0 0 0-2 4c-2.146 2.839-4.299 5.667-7 8h-2l-.727 1.637c-1.603 2.975-3.582 5.502-5.648 8.175-3.246 4.259-6.092 8.47-8.625 13.188a426.33 426.33 0 0 1-3.062 5.375l-1.473 2.586C-110 97-110 97-113 98c1.46-5.164 3.77-9.27 6.625-13.75l1.358-2.144C-98.41 71.816-90.42 62.836-82 54l1.732-1.82c8.002-8.34 16.22-15.985 25.509-22.87a365.845 365.845 0 0 0 5.303-4.044C-16.422 0-16.422 0 0 0z" fill="#EFEFF0" transform="translate(253,205)"/><path d="m0 0-1 1.625C-2.237 4.563-2.21 6.842-2 10c1.104 1.329 1.104 1.329 3.875 1.125C5.032 11.144 5.032 11.144 8 10c.455 5.693-.318 8.602-4 13-3.028 2.38-6.248 2.363-10.04 2.25-4.022-.513-6.21-2.371-8.773-5.375-2.056-4.98-2.056-9.77 0-14.75C-10.343-.115-6.528-.332 0 0z" fill="#1C1E54" transform="translate(369,156)"/><path d="m0 0-1 9h-2l-.25 3.375c-.544 4.447-2.04 8.218-3.777 12.324C-8.178 27.421-9.083 30.19-10 33a1546.875 1546.875 0 0 1-3.098 8.414A60.566 60.566 0 0 0-15 48h-2l-.188 2.75c-.656 4.577-2.517 8.515-4.351 12.73-1.668 4.021-3.105 8.093-4.522 12.208-1.827 5.288-3.777 10.413-6.145 15.488-.931 2.031-.931 2.031-1.73 5.136C-35.499 101.73-37.776 106.827-40 112h-4l1.48-3.632c4.656-11.497 9.032-23.069 13.22-34.743a2308.38 2308.38 0 0 1 18.992-51.05l2.1-5.456c.728-1.882 1.467-3.76 2.225-5.63C-4.427 7.595-4 5.34-4 1l-13-1v-1c1.894-.224 3.79-.428 5.688-.625l3.199-.352C-4.863-2-2.898-1.409 0 0z" fill="#EDEDEF" transform="translate(326,310)"/><path d="M0 0 2.39.014c1.932.011 3.865.03 5.797.049v1l-18 1v2l-3 2a535.115 535.115 0 0 0-2.628 4.796c-2.387 3.832-5.355 7.199-8.251 10.652-2.107 2.466-2.107 2.466-3.775 4.883l-1.347 1.667h-2v2c-1.97 1.692-1.97 1.692-4.5 3.563a182.125 182.125 0 0 0-4.5 3.438v1l2.06-.52a15656 15656 0 0 1 9.377-2.355l3.24-.817c21.042-5.275 41.642-7.541 63.323-7.307v1l-1.807.12C7.21 30.193-25.752 33.38-52.706 45.809c-3.105 1.252-3.105 1.252-6.105.252l2.457-1.433c7.736-4.621 14.764-9.587 21.542-15.568l1.922-1.667c6.937-6.445 12.148-14.915 16.827-23.083 2.25-3.25 2.25-3.25 4.34-3.949C-7.804-.042-3.936-.043 0 0z" fill="#EAEBED" transform="translate(325.8125,193.9375)"/><path d="M0 0C2 2 2 2 2.227 3.97c-.01.787-.02 1.572-.032 2.382l-.02 2.578-.05 2.695c-.01.897-.018 1.794-.027 2.719C2.074 16.563 2.04 18.78 2 21H1l-.184-3.465-.253-4.472-.12-2.288C.56 7.081.56 7.081-1 4c-6.728.187-11.27 3.192-16.875 6.688a2446.99 2446.99 0 0 1-5.844 3.542l-3.085 1.87c-6.49 3.86-13.11 7.487-19.718 11.14a758.717 758.717 0 0 0-5.833 3.27 173.4 173.4 0 0 1-5.099 2.766c-3.711 2.041-5.242 2.923-6.783 6.994-.082 3.92.059 6.975 1.238 10.73 3.211 3.227 6.836 5.044 10.928 6.984 3.862 1.893 7.546 4.099 11.26 6.266.742.413 1.484.826 2.25 1.25.694.398 1.39.794 2.105 1.203l1.876 1.052c1.92 1.513 2.638 3.014 3.58 5.245-4.747-1.679-8.887-4.175-13.188-6.75l-2.281-1.36c-1.496-.892-2.991-1.785-4.486-2.679a333.938 333.938 0 0 0-5.24-3.026l-2.617-1.496c-.728-.41-1.456-.818-2.207-1.239-3.807-2.787-5.764-5.15-6.546-9.86 0-1.205.002-2.41.004-3.653l-.067-3.66c.63-3.277.63-3.277 2.689-5.472 3.433-2.107 6.926-3.896 10.565-5.618a147.456 147.456 0 0 0 17.012-9.675c2.605-1.667 5.256-3.014 8.047-4.336 3.95-2.006 7.754-4.282 11.57-6.535C-13.216 5-13.216 5-11 5V3C-7.316.183-4.6-.51 0 0z" fill="#F2F3F4" transform="translate(253,322)"/><path d="M0 0c10.145 5.264 19.957 11.053 29.773 16.902a423.194 423.194 0 0 0 9.204 5.352l3.21 1.809 2.668 1.472C47.277 27.19 48.575 28.431 50 31c.469 3.059.469 3.059.5 6.438.03 1.112.062 2.224.094 3.37C49.81 45.024 48.31 46.337 45 49c-2.926 1.746-2.926 1.746-6.312 3.438-6.992 3.585-13.785 7.465-20.563 11.437l-3.112 1.814C10.25 68.473 5.51 71.286.82 74.194l-2.36 1.446a258.06 258.06 0 0 0-4.284 2.692C-7.734 79.5-7.734 79.5-11 81c-2.453-.75-2.453-.75-4-2l2.027-.96C-6.216 74.755.26 71.162 6.71 67.32c8.073-4.807 16.225-9.476 24.38-14.142a440.075 440.075 0 0 0 6.251-3.657c2.66-1.52 2.66-1.52 4.76-2.36 1.968-.727 1.968-.727 3.9-3.16 1.259-4.96 1.365-9.055 0-14-3.44-3.798-7.654-5.878-12.188-8.125a494.24 494.24 0 0 1-3.678-1.992 416.427 416.427 0 0 0-7.49-3.97C17.269 13.117 12.053 10.043 6.814 7A2768.035 2768.035 0 0 0-2 2l2-2z" fill="#ECECEF" transform="translate(353,329)"/><path d="M0 0h1l.17 1.96c.662 4.93 1.353 8.223 5.244 11.509a161.66 161.66 0 0 0 4.21 3.03 3597862.2 3597862.2 0 0 0 6.484 4.964C26.59 29.164 33.61 41.853 35.001 54c.123 2.363.1 4.632 0 7-2.002-.979-3.958-1.975-5.875-3.113-5.86-3.307-11.685-4.847-18.188-6.325C-2.88 48.39-2.88 48.39-8 43v-2c2.888.444 4.4 1.27 6.875 2.938 4.38 2.89 8.526 3.966 13.625 4.875C19.255 50.083 25.59 52.58 32 55l-.875-2.738L30 48.687l-1.125-3.55C28 42 28 42 28 39h-2l-.688-2.125c-1.154-2.53-2.153-4.006-3.937-6.062C19 28 19 28 19 26h-2v-2l-1.648-.719c-2.965-1.614-5.38-3.625-7.977-5.78L4.46 15.094C2 13 2 13 0 11c-.195-2.602-.195-2.602-.125-5.625l.055-3.04L0 0z" fill="#F1F1F3" transform="translate(129,346)"/><path d="M0 0a56947132 56947132 0 0 0-9.844 4.57c-9.618 1.31-19.199 1.594-28.89 1.762C-60.22 6.722-81.585 8.242-103 10c1-2 1-2 4.06-3.09 3.957-1.028 7.895-1.318 11.967-1.472l2.333-.11c1.66-.076 3.32-.15 4.98-.219 2.638-.112 5.274-.234 7.911-.358 8.363-.392 16.727-.752 25.09-1.1 3.59-.153 7.177-.314 10.764-.476 2.52-.11 5.038-.207 7.558-.303C-20.04 2.518-12.436 1.736-4.395-.48-2-.999-2-.999 0 .001z" fill="#E4E5EA" transform="translate(449,221)"/><path d="M0 0C3.45.016 6.9 0 10.352-.02 22.065-.03 32.97.398 44.325 3.392c2.124.503 4.25 1.004 6.375 1.501 2.648.657 2.648.657 4.625 1.501l1 3.001c-.993-.264-1.985-.53-3.008-.804L49.2 7.516l-1.957-.527C33.759 3.52 20.553 3.07 6.713 3.129c-2.987.01-5.975 0-8.963-.012-12.59-.008-24.926.765-37.425 2.273V3.392C-26.443.353-13.545-.074 0 .001z" fill="#DEDFE5" transform="translate(313.67529296875,106.60888671875)"/><path d="M0 0c4.127 1.668 5.113 3.117 6.938 7.188.625 5.41.813 10.205-2 15l-3-1v-9l-2 1c-3 .187-3 .187-6 0-2-2-2-2-2.438-4.813.438-3.188.438-3.188 2.562-6.125C-3.062.188-3.062.188 0 0z" fill="#ECECEE" transform="translate(374.0625,154.8125)"/><path d="M0 0c6.905-.345 11.972.6 18.375 3.125l2.498.952C35.965 9.965 35.965 9.965 40 14c5.88-.112 11.807-.533 17.5-2.062 3.05-.818 5.376-1.133 8.5-.938-1 2-1 2-2.962 2.702-2.76.673-5.52 1.34-8.288 1.986l-2.895.72-2.808.666-2.568.612c-5.147.651-8.425-1.08-12.667-3.81-5.17-3.104-10.383-5.503-16-7.689l-2.23-.877C10.473 3.373 5.361 2.052 0 1V0z" fill="#EDEDF0" transform="translate(208,100)"/><path d="M0 0C-1.23 3.686-2.098 3.903-5.426 5.715l-2.826 1.563-3.06 1.66a3364.845 3364.845 0 0 0-6.301 3.492c-1.066.59-2.131 1.182-3.23 1.792-5.602 3.155-11.097 6.486-16.596 9.819a863.108 863.108 0 0 1-4.494 2.707 132.08 132.08 0 0 0-4.039 2.55c-1.84 1.168-1.84 1.168-5.027 2.703-2.438-.75-2.438-.75-4-2l2.027-.96c8.392-4.079 16.36-8.72 24.37-13.492 5.17-3.075 10.354-6.127 15.54-9.173l3.216-1.904c.99-.58 1.98-1.16 3-1.76l2.687-1.584C-2 0-2 0 0 0z" fill="#EAEBEA" transform="translate(393,378)"/><path d="M0 0v1c-1.375.027-2.75.047-4.125.062l-2.32.036C-9 1-9 1-11.585.512-25.303-1.544-44.213-2.224-56.689 4.75-59.661 7.644-60.647 10.097-62 14h-1c-.238-2.855-.42-5.2 0-8C-49.66-8.957-17.262-4.102 0 0z" fill="#F5F6F6" transform="translate(212,99)"/><path d="M0 0v2l-2.228.887c-1.64.659-3.278 1.324-4.91 2.003-7.595 3.132-15.373 5.678-23.174 8.235-2.022.665-4.044 1.33-6.064 1.998-1.82.6-3.64 1.198-5.461 1.795a89.04 89.04 0 0 0-5.843 2.214c-3.15 1.179-5.99.999-9.32.868 2.656-1.77 4.6-2.662 7.576-3.664.924-.314 1.849-.628 2.802-.95.996-.334 1.993-.668 3.02-1.01l3.113-1.054c3.288-1.112 6.576-2.217 9.865-3.322 3.281-1.106 6.562-2.213 9.843-3.322 2.041-.69 4.084-1.377 6.127-2.063.93-.314 1.861-.628 2.82-.95l2.47-.83c1.698-.6 3.377-1.252 5.042-1.94C-2 0-2 0 0 0z" fill="#DFE0E6" transform="translate(294,240)"/><path d="M0 0c2.888.444 4.4 1.27 6.875 2.938 4.38 2.89 8.526 3.966 13.625 4.875C27.255 9.083 33.59 11.58 40 14V4c2.348 3.522 2.377 5.508 2.625 9.688l.227 3.574L43 20c-2.002-.979-3.958-1.975-5.875-3.113-5.86-3.307-11.685-4.847-18.188-6.324C5.12 7.389 5.12 7.389 0 2V0z" fill="#E3E4E8" transform="translate(121,387)"/><path d="m0 0 1.938 1-4 4-1-2c-1.605.31-3.21.623-4.813.938l-2.707.527c-2.594.512-2.594.512-5.48 1.535-2.03 3.832-2.498 7.73-3 12h-1c-2.8-8.38-2.8-8.38-.938-12.152C-15.21-.998-8.58-2.802 0 0z" fill="#E1E0E5" transform="translate(372.0625,153)"/><path d="M0 0h1v37l-4 2-3-1 3-2a67 67 0 0 0 .695-7.816l.115-2.339c.118-2.469.218-4.938.315-7.407.108-2.474.22-4.946.337-7.419.071-1.54.137-3.081.197-4.622.23-5.287.23-5.287 1.34-6.398z" fill="#FBFBFC" transform="translate(99,313)"/><path d="M0 0c-4.416 5.18-11.974 4.957-18.375 5.625C-30.598 6.578-42.787 5.715-55 5V4l3.466-.136c4.304-.172 8.607-.36 12.91-.554 1.85-.08 3.702-.157 5.553-.23 9.87-.386 19.208-.882 28.763-3.563C-2-1-2-1 0 0z" fill="#DDDFE3" transform="translate(449,221)"/><path d="M0 0h1C2.353 15 2.353 15-.477 19.184-2.899 20.784-5.327 21.86-8 23a200.2 200.2 0 0 0-3.762 2.113C-23.074 31.545-23.074 31.545-28 31c3.156-2.93 6.384-4.725 10.266-6.488C-7.486 20.384-7.486 20.384.118 12.977 1.263 8.578.863 4.451 0 0z" fill="#E7E8EA" transform="translate(253,327)"/><path d="M0 0h1c.054 1.437.093 2.875.125 4.312l.07 2.426C1 9 1 9-1 12a459.098 459.098 0 0 0-1.293 4.75C-3.827 21.632-5.98 26.303-8 31h-4l.67-1.661C-5.43 14.758-5.43 14.758 0-.001z" fill="#EAEBEC" transform="translate(294,391)"/><path d="m0 0-1 3c-2.006.93-4.03 1.82-6.062 2.688-4.21 2.213-4.21 2.213-6.55 6.152-.662 4.79-.34 9.437.612 14.16 1.396 1.973 1.396 1.973 3 3-4.875-.875-4.875-.875-6-2-.36-3.093-.371-6.201-.438-9.312-.045-.869-.09-1.737-.138-2.631-.044-2.486.002-4.637.576-7.057 2.762-2.465 2.762-2.465 6-4l2.266-1.266 1.984-.984L-3.734.734C-2 0-2 0 0 0z" fill="#F6F6F8" transform="translate(350,381)"/><path d="M0 0 2.39.014c1.932.011 3.865.03 5.797.049v1l-18 1v2l-3 2a213.752 213.752 0 0 0-2.882 5.113c-1.73 2.92-3.882 5.34-6.118 7.887l-3-1 4.375-6.813 1.25-1.947c5.273-8.207 5.273-8.207 7.45-8.924C-7.814-.046-3.944-.044 0-.001z" fill="#E4E5E7" transform="translate(325.8125,193.9375)"/><path d="M0 0C5.4.034 9.852 3.324 14.062 6.438l1 2C11.717 8.031 9.34 7.108 6.5 5.375 3.14 3.11 3.14 3.11-.938 3.437l-1 18-2-1C-3.966 17.292-3.984 14.146-4 11l-.025-2.72-.01-2.589-.016-2.395C-3.862.192-3.136.467 0 0z" fill="#F7F7F9" transform="translate(337.9375,321.5625)"/><path d="m0 0 2 1c-6.973 8.656-19.552 10.348-30 12-2 .046-4 .06-6 0 3.372-2.248 6.497-2.94 10.375-3.812C-10.815 6.517-10.815 6.517 0 0z" fill="#EAEBED" transform="translate(113,398)"/><path d="M0 0c3.188.252 4.597.57 6.812 2.938C8 5 8 5 8 7L4 6 3 2H1L.312 4.125c-2.325 5.094-4.99 8.546-10.125 10.75L-13 16l-2-2 3.625-1.438C-6.126 9.99-3.875 5.906-1 1l1-1z" fill="#F3F4F5" transform="translate(115,380)"/><path d="M0 0c-2.245 1.123-4.49 2.244-6.738 3.363a841.41 841.41 0 0 0-7.242 3.68l-4.208 2.144-2.013 1.045c-4.204 2.133-8.229 3.612-12.8 4.768 2.662-3.05 5.954-4.907 9.438-6.875l1.866-1.056C-5.365-2.003-5.365-2.003 0-.001z" fill="#E6E7EA" transform="translate(250,207)"/><path d="m0 0 3 1A516.67 516.67 0 0 1-.375 4.5L-2.273 6.47C-4 7.999-4 7.999-6 7.999l-.75 1.688C-8.842 13.557-11.663 17.118-15 20h-2l-2 4-3-1C-14.838 15.148-7.592 7.44 0 0z" fill="#F1F1F2" transform="translate(181,249)"/><path d="M0 0c3 1 3 1 4 3 1.09 11.412 1.09 11.412-2.188 16.188C-.763 20.847-3.08 22.082-6 23v-3l2.977-1.672c3.448-2.1 3.448-2.1 3.609-6.219a105.11 105.11 0 0 0-.21-4.36L.292 5.492C.223 3.66.115 1.83 0 0z" fill="#F2F2F2" transform="translate(399,357)"/><path d="M0 0h1l.154 1.941c.67 5.138 1.511 8.357 5.506 11.81A150.23 150.23 0 0 0 11.063 17c1.471 1.102 2.942 2.206 4.41 3.312l1.976 1.426C19 23 19 23 20 25l-3 1v-2l-1.648-.719c-2.965-1.614-5.38-3.625-7.977-5.78L4.46 15.094C2 13 2 13 0 11c-.195-2.602-.195-2.602-.125-5.625l.055-3.04L0 0z" fill="#E7E8EB" transform="translate(129,346)"/><path d="M0 0C-2.572 1.714-4.683 2.76-7.527 3.875c-.875.345-1.75.69-2.65 1.047L-12.938 6a6114319.5 6114319.5 0 0 1-7.82 3.07c-2.253.895-2.253.895-4.362 2.04-2.382 1.128-4.277 1.035-6.88.89 4.516-3.635 9.548-5.51 14.875-7.688.98-.415 1.962-.83 2.973-1.26C-5.234-.611-5.234-.611 0 0z" fill="#ECEDF0" transform="translate(241,260)"/><path d="M0 0C7.03-.36 12.268.68 18.812 3.188l2.522.884C26.192 5.884 29.135 7.456 32 12c-5-2-5-2-6.955-2.79-2.262-.91-4.528-1.81-6.795-2.71l-2.305-.934C10.685 3.49 5.55 2.106 0 1V0z" fill="#E5E6E9" transform="translate(208,100)"/><path d="m0 0 3 1H1c-2.45 3.742-2.23 7.442-2.125 11.75.01.697.018 1.395.027 2.113.024 1.713.06 3.425.098 5.137l-4-2c-.135-2.248-.232-4.5-.312-6.75l-.176-3.797C-5 4-5 4-2.668 1.484L0 0z" fill="#FCFCFC" transform="translate(191,354)"/><path d="M0 0c3.077 3.077 2.983 5.343 3.098 9.672a548.71 548.71 0 0 1-.036 4.078l-.013 2.113c-.013 1.713-.03 3.425-.05 5.137l-3 1V0z" fill="#FBFCFB" transform="translate(172,393)"/><path d="M0 0h3C2.557 3.013 1.896 5.204.5 7.938-1.016 11.033-1.595 13.597-2 17h-2C-4.286 8.43-4.286 8.43-2 5l-4-1 5-1 1-3z" fill="#ECEDF0" transform="translate(295,239)"/><path d="M0 0h2C7.773 6.275 8.316 12.452 8.105 20.62L8 23.001H7l-.516-2.309C5.084 14.723 3.466 9.257.77 3.743 0 2 0 2 0 0z" fill="#F5F4F3" transform="translate(164,376)"/><path d="M0 0c1.803 3.607 2.466 6.084 3 10l-2 1L0 0zm-6 17 2 2-8 8-2-2c4.625-5.75 4.625-5.75 8-8z" fill="#FCFBFC" transform="translate(177,138)"/><path d="M0 0v5c1.458 1.625 1.458 1.625 3 3l-1 3-1.875-.625L-2 10l-2 2c-1.125-5.625-1.125-5.625 0-9 2.062-1.688 2.062-1.688 4-3z" fill="#F8F8F8" transform="translate(74,384)"/><path d="M0 0c1.392 4.176-.293 6.834-1.938 10.688l-.88 2.126A704.79 704.79 0 0 1-5 18h-1c-.474-6.519.61-11.346 4-17l2-1z" fill="#F0F1F1" transform="translate(301,378)"/><path d="M0 0c3.502 4.416 4.5 8.132 4.5 13.703C3.6 17.835.4 19.79-3 22l-2-1 1.602-1.18C-1.211 17.987.447 16.404 2 14c.021-2.804-.503-4.992-1.316-7.668C0 4 0 4 0 0z" fill="#DBDAE0" transform="translate(177,134)"/><path d="M0 0v2l-2.207.871c-1.717.695-3.425 1.412-5.117 2.165C-13.241 7.607-18.561 8.725-25 9c2.64-1.76 4.647-2.696 7.598-3.727l2.677-.937 2.788-.96 2.798-.985C-2.262 0-2.262 0 .001 0z" fill="#DBDCE1" transform="translate(294,240)"/><path d="M0 0h3C1.472 3.438-.502 6.19-3 9h-2v2l-3 2-3-1 1.898-1.863 2.477-2.45 2.46-2.425C-1.874 3-1.874 3 0 0z" fill="#F5F4F4" transform="translate(300,213)"/><path d="m0 0 9 4v2h2c1.607 3.215 1.057 6.436 1 10l-.75-1.625C8.25 8.675 5.45 5.467 0 2V0z" fill="#F4F4F5" transform="translate(459,186)"/><path d="M0 0C-2.413 1.61-4.368 2.653-7.012 3.727l-2.295.937-2.38.96-2.417.985c-1.964.8-3.93 1.595-5.896 2.39 1.82-4.146 3.524-5.047 7.75-6.75L-9.14.953C-5.917-.026-3.349-.18 0 0z" fill="#EEEFF1" transform="translate(231,253)"/><path d="M0 0h3C1.61 2.962.004 5.554-1.938 8.188l-1.527 2.105C-5 12-5 12-8 13c1.535-4.913 4.414-9.322 8-13z" fill="#EFF0F1" transform="translate(158,273)"/><path d="M0 0c7.356-1.003 12.694 2.52 19 6l-1 2L0 1V0z" fill="#E5E5E9" transform="translate(440,180)"/><path d="M0 0c-1.244 3.732-2.434 4.2-5.75 6.188l-2.61 1.605C-11.164 9.076-12.955 9.246-16 9c4.022-3.503 10.394-9 16-9z" fill="#E4E6E6" transform="translate(393,378)"/><path d="M0 0h2c-3.075 10.558-3.075 10.558-5 15-1.188-1.5-1.188-1.5-2-4 .98-4.094 2.673-7.509 5-11z" fill="#EEEFF1" transform="translate(289,351)"/><path d="m0 0 2 1C-.52 5.41-4.384 7.276-9 9c-3 .25-3 .25-5 0 4.2-3.658 8.872-6.794 14-9z" fill="#E1E3E5" transform="translate(239,349)"/><path d="M0 0h1c.08 2.771.14 5.54.188 8.312l.076 2.381.03 2.295c.015.697.03 1.393.047 2.11C.896 17.588-.01 18.489-2 20c-2.188-.312-2.188-.312-4-1h2l.938-1.875L-1 13c.23-2.204.41-4.414.562-6.625l.254-3.602L0 0z" fill="#3A406E" transform="translate(171,399)"/><path d="m0 0 3 1v11H0V0z" fill="#FFFFFF" transform="translate(261,396)"/><path d="m0 0 3 1A516.67 516.67 0 0 1-.375 4.5L-2.273 6.47C-4 7.999-4 7.999-6 7.999l-2 4-3-1L0 0z" fill="#FBFAF9" transform="translate(181,249)"/><path d="M0 0v1l-22 1V1c7.462-2.54 14.27-2.586 22-1z" fill="#ECEDEE" transform="translate(403,218)"/><path d="M0 0C-2.882 2.882-6.25 2.97-10.125 3.625l-2.285.406c-1.862.331-3.726.652-5.59.97 2.325-3.488 3.782-3.78 7.758-4.66C-6.79-.184-3.488-.125 0 0z" fill="#E4E5E9" transform="translate(102,395)"/><path d="M0 0v2a594.726 594.726 0 0 1-5.812 3.062l-3.27 1.723C-12 8-12 8-15 7c1.624-.98 3.25-1.96 4.875-2.938l2.742-1.652C-3.31 0-3.31 0 0 0z" fill="#FAFAFB" transform="translate(211,260)"/><path d="M0 0v3h-2l-2 4a108.817 108.817 0 0 1-7-1l-1-2 3.75-.875C-5.276 2.387-2.666 1.555 0 0z" fill="#FCFCFB" transform="translate(69,419)"/><path d="M0 0a379.985 379.985 0 0 1-5.75 3.625l-3.234 2.04C-12 7-12 7-14.391 6.21L-16 5c1.58-.818 3.165-1.629 4.75-2.438l2.672-1.37C-2.882-1.442-2.882-1.442 0 0z" fill="#EFEFF1" transform="translate(354,403)"/><path d="m0 0 2 1c-.492 6.4-.492 6.4-3.062 9.438L-3 12c-1-2-1-2-.223-4.383l1.16-2.742L-.91 2.117 0 0z" fill="#E4E4E7" transform="translate(318,327)"/><path d="M0 0a818.66 818.66 0 0 1-4.688 1.938l-2.636 1.09C-9.882 3.957-12.322 4.541-15 5V2C-4.028-2.014-4.028-2.014 0 0z" fill="#E6E7EB" transform="translate(275,249)"/><path d="M0 0c.963 3.044 1.137 3.7-.25 6.75L-2 9h-3l-2 4c0-3.838 1.265-5.115 3.5-8.188l1.969-2.73L-.001 0z" fill="#F6F6F7" transform="translate(142,188)"/><path d="m0 0 2 2-11 8-1-3C-6.803 4.35-3.605 2.06 0 0z" fill="#EBECF1" transform="translate(92,351)"/><path d="m0 0 4 1-3 1-1.438 3.5C-2 9-2 9-4.188 9.938L-6 10c1.37-3.995 3.257-6.8 6-10z" fill="#E4E6E9" transform="translate(346,228)"/><path d="M0 0C0 3.96-1.35 4.83-4 7.688l-2.25 2.449L-8 12c0-3.562.747-4.365 2.875-7.125l1.617-2.133C-2 1-2 1 0 0z" fill="#F0EFF0" transform="translate(80,375)"/><path d="m0 0 2 1C-1.088 4.353-3.525 6.822-8 8l-3-1 2.125-1.25C-5.858 3.914-2.928 1.974 0 0z" fill="#ECEDEF" transform="translate(113,398)"/><path d="M0 0c1.23 3.69.518 4.543-1 8a91.05 91.05 0 0 0-1 4h-2v5h-1c-.734-6.755 1.724-11.185 5-17z" fill="#FCFDFD" transform="translate(62,380)"/><path d="m0 0 9 1v2L-5 4V3h6L0 0z" fill="#FDFCFC" transform="translate(390,202)"/><path d="M0 0c1.858.09 3.712.246 5.562.438L8.63.745l2.37.254v1C4.627 2.745-1.583 3.103-8 3V2l3.438-.438C-1.193 1.388-1.193 1.388 0 0z" fill="#EAEBEC" transform="translate(423,215)"/><path d="M0 0h2L0 11h-2c-.25-7.625-.25-7.625 2-11z" fill="#FCFBFB" transform="translate(293,245)"/><path d="M0 0c1.38 3.836.943 7.084 0 11-2.05 1.21-2.05 1.21-4 2l1.438-4.812.808-2.708C-1.196 3.645-.607 1.82 0 0z" fill="#D9DBDE" transform="translate(303,366)"/><path d="M0 0c-1.116 3.347-1.513 3.62-4.438 5.25L-8 7l-2-1c5.6-6 5.6-6 10-6z" fill="#F2F3F3" transform="translate(249,345)"/><path d="M0 0h2c1.594 3.188 1.102 6.63 1.062 10.125L3.05 12.41c-.013 1.863-.03 3.727-.05 5.59H2l-.184-2.668-.253-3.52-.247-3.48A66.066 66.066 0 0 0 0 0z" fill="#FCFAF6" transform="translate(252,388)"/><path d="M0 0h12C8.79 2.408 6.65 3.682 3 5l1-3-4-2z" fill="#EDEDF1" transform="translate(443,209)"/><path d="M0 0C-4.622 2.22-7.768 3.383-13 3-8.834.223-4.936-1.898 0 0z" fill="#D9DCDF" transform="translate(92,408)"/><path d="M0 0h2l.312 3.312C2.974 6.856 3.202 7.932 6 10c-4.875-.875-4.875-.875-6-2-.141-2.67-.042-5.324 0-8z" fill="#FEFEFE" transform="translate(334,400)"/><path d="m0 0 1 2c-3.323 5.785-3.323 5.785-6.75 6.875L-8 9c.957-1.126 1.916-2.25 2.875-3.375l1.617-1.898A75.822 75.822 0 0 1 0 0z" fill="#DEDFE3" transform="translate(86,367)"/><path d="m0 0 1 3-7 6-2-1 8-8z" fill="#E7E8EC" transform="translate(180,147)"/><path d="M0 0c3 1 3 1 4 3 .07 1.874.084 3.75.062 5.625l-.027 3.04L4 14l-2 1L3 4H1L0 0z" fill="#FDFDFC" transform="translate(399,357)"/><path d="m0 0 2.105.512 1.707.8 1 3-13-3C-3.637-.961-3.637-.961 0 0z" fill="#D6D7DF" transform="translate(365.1875,111.6875)"/><path d="M0 0c-1 3-1 3-4.438 4.75L-8 6l-2-1a616.9 616.9 0 0 1 3.875-2.5l2.18-1.406C-2 0-2 0 0 0z" fill="#E0E1E5" transform="translate(360,397)"/><path d="M0 0c-3.797 2.826-6.186 4.566-11 4 7.225-5.887 7.225-5.887 11-4z" fill="#DDDFE4" transform="translate(220,268)"/><path d="m0 0 3 2-10 5c2.09-4.178 3.055-4.924 7-7z" fill="#ECEDF1" transform="translate(195,267)"/><path d="M0 0c1.138 4.55.428 6.63-1 11l-3-1L0 0z" fill="#D4D5DA" transform="translate(286,412)"/><path d="m0 0 3.375 1.312 1 3-11-3c3-2 3-2 6.625-1.312z" fill="#DADCDF" transform="translate(149.625,396.6875)"/><path d="m0 0 3 1c-4.75 4-4.75 4-7 4l-1 3-2-1c4.75-5.875 4.75-5.875 7-7z" fill="#F5F6F6" transform="translate(182,288)"/><path d="m0 0 1 3-5 5c.312-2.875.312-2.875 1-6l3-2z" fill="#F7F7F7" transform="translate(151,285)"/><path d="M0 0c-2.688 2.252-4.646 3.882-8 5V2c4.28-3.24 4.28-3.24 8-2z" fill="#EAEAEC" transform="translate(370,371)"/><path d="M0 0h1v9h-3c.875-6.75.875-6.75 2-9z" fill="#C7C7D0" transform="translate(139,342)"/><path d="m0 0-5 3V1h-6V0c7.625-2.25 7.625-2.25 11 0z" fill="#DBD9E0" transform="translate(374,155)"/><path d="m0 0 1 2C-.25 5.062-.25 5.062-2 8l-3 1c1.25-3.46 2.675-6.147 5-9z" fill="#E4E4E6" transform="translate(155,277)"/><path d="M0 0c2 4 2 4 2 8l-4 2L0 0z" fill="#E5E8E8" transform="translate(469,198)"/><path d="M0 0c-2.853 2.325-5.54 3.75-9 5C-7.352.057-4.77-.258 0 0z" fill="#F0F1F1" transform="translate(380,387)"/><path d="m0 0 2 1C-.462 4.815-.462 4.815-3.188 5.75L-5 6V3c2.375-1.75 2.375-1.75 5-3z" fill="#E9EAEB" transform="translate(239,349)"/><path d="M0 0c2.972 1.125 5.334 2.223 8 4H1L0 0z" fill="#F5F5F7" transform="translate(436,176)"/><path d="m0 0 2 1h-3l1-1z" fill="#FFFFFF" transform="translate(243,213)"/></svg>